# xmcd
#
# Track frame offsets: 
#        150
#        20878
#        73830
#        101732
#        110658
#        130949
#        152842
#        180478
#        209072
#        235413
#
# Disc length: 3527 seconds
#
# Revision: 0
# Processed by: cddbd v1.5.2PL0 Copyright (c) Steve Scherf et al.
# Submitted via: ExactAudioCopy v0.95b4
#
DISCID=980dc50a
DTITLE=Eric Clapton - 1987-10-06 - Ronnie Scott's '87 - CD1
DYEAR=1987
DGENRE=Blues
TTITLE0=Sweet Home Chicago
TTITLE1=Play The Blues
TTITLE2=Key To Highway
TTITLE3=Walking The Dog
TTITLE4=Stormy Monday 1
TTITLE5=Real Mother For Ya
TTITLE6=Stormy Monday 2
TTITLE7=Jam
TTITLE8=Worried Life Blues 1
TTITLE9=Worried Life Blues 2
EXTD=
EXTT0=
EXTT1=
EXTT2=
EXTT3=
EXTT4=
EXTT5=
EXTT6=
EXTT7=
EXTT8=
EXTT9=
PLAYORDER=
